# xmcd
#
# Track frame offsets:
#	150
#	33469
#	55226
#	74023
#
# Disc length: 1244 seconds
#
# Revision: 2
# Processed by: cddbd v1.5.2PL0 Copyright (c) Steve Scherf et al.
# Submitted via: EasyCDDAExtractor 8.2.3.1
#
DISCID=3704da04
DTITLE=Goloka - Goloka EP
DYEAR=1900
DGENRE=
TTITLE0=Thinking About You
TTITLE1=Give Me Loving
TTITLE2=Mandarin
TTITLE3=(Floating)... In Your Mind
EXTD=
EXTT0=
EXTT1=
EXTT2=
EXTT3=
PLAYORDER=
